<?xml version="1.0" standalone="no"?>
<!DOCTYPE svg PUBLIC "-//W3C//DTD SVG 1.1//EN" "http://www.w3.org/Graphics/SVG/1.1/DTD/svg11.dtd" >
<svg xmlns="http://www.w3.org/2000/svg">
<metadata>
Created by FontForge 20120731 at Thu Mar  2 14:18:52 2017
 By admin
</metadata>
<defs>
<font id="iconfont" horiz-adv-x="1024" >
  <font-face 
    font-family="iconfont"
    font-weight="500"
    font-stretch="normal"
    units-per-em="1024"
    panose-1="2 0 6 3 0 0 0 0 0 0"
    ascent="896"
    descent="-128"
    x-height="792"
    bbox="0 -212 1117 896"
    underline-thickness="0"
    underline-position="0"
    unicode-range="U+0078-F0022"
  />
<missing-glyph 
 />
    <glyph glyph-name=".notdef" 
 />
    <glyph glyph-name=".null" horiz-adv-x="0" 
 />
    <glyph glyph-name="nonmarkingreturn" horiz-adv-x="341" 
 />
    <glyph glyph-name="x" unicode="x" horiz-adv-x="1001" 
d="M281 543q-27 -1 -53 -1h-83q-18 0 -36.5 -6t-32.5 -18.5t-23 -32t-9 -45.5v-76h912v41q0 16 -0.5 30t-0.5 18q0 13 -5 29t-17 29.5t-31.5 22.5t-49.5 9h-133v-97h-438v97zM955 310v-52q0 -23 0.5 -52t0.5 -58t-10.5 -47.5t-26 -30t-33 -16t-31.5 -4.5q-14 -1 -29.5 -0.5
t-29.5 0.5h-32l-45 128h-439l-44 -128h-29h-34q-20 0 -45 1q-25 0 -41 9.5t-25.5 23t-13.5 29.5t-4 30v167h911zM163 247q-12 0 -21 -8.5t-9 -21.5t9 -21.5t21 -8.5q13 0 22 8.5t9 21.5t-9 21.5t-22 8.5zM316 123q-8 -26 -14 -48q-5 -19 -10.5 -37t-7.5 -25t-3 -15t1 -14.5
t9.5 -10.5t21.5 -4h37h67h81h80h64h36q23 0 34 12t2 38q-5 13 -9.5 30.5t-9.5 34.5q-5 19 -11 39h-368zM336 498v228q0 11 2.5 23t10 21.5t20.5 15.5t34 6h188q31 0 51.5 -14.5t20.5 -52.5v-227h-327z" />
    <glyph glyph-name="watch" unicode="&#xe7ff;" 
d="M320 -212h384q13 0 22.5 9.5t9.5 22.5v209q60 49 94 120t34 151t-34 151t-94 120v209q0 13 -9.5 22.5t-22.5 9.5h-384q-13 0 -22.5 -9.5t-9.5 -22.5v-209q-60 -49 -94 -120t-34 -151t34 -151t94 -120v-209q0 -13 9.5 -22.5t22.5 -9.5zM672 -148h-320v135q75 -39 160 -39
t160 39v-135zM352 748h320v-135q-75 39 -160 39t-160 -39v135zM224 300q0 119 84.5 203.5t203.5 84.5t203.5 -84.5t84.5 -203.5t-84.5 -203.5t-203.5 -84.5t-203.5 84.5t-84.5 203.5zM498 271l128 -64q6 -3 14 -3q20 0 29 18q6 12 1.5 24.5t-16.5 18.5l-110 55v172
q0 13 -9.5 22.5t-22.5 9.5t-22.5 -9.5t-9.5 -22.5v-192q0 -20 18 -29z" />
    <glyph glyph-name="watch1" unicode="&#xe71b;" 
d="M512 257h85q18 0 30.5 12.5t12.5 30.5t-12.5 30.5t-30.5 12.5h-42v42q0 18 -12.5 30.5t-30.5 12.5t-30.5 -12.5t-12.5 -30.5v-85q0 -18 12.5 -30.5t30.5 -12.5v0zM725 509v90q0 53 -37.5 90.5t-90.5 37.5h-170q-53 0 -90.5 -37.5t-37.5 -90.5v-90q-86 -87 -86 -209
t86 -209v-90q0 -53 37.5 -90.5t90.5 -37.5h170q53 0 90.5 37.5t37.5 90.5v90q86 87 86 209t-86 209zM384 599q0 17 12.5 29.5t30.5 12.5h170q18 0 30.5 -12.5t12.5 -29.5v-78q-60 35 -128.5 35t-127.5 -35v78v0zM640 1q0 -17 -12.5 -29.5t-30.5 -12.5h-170q-18 0 -30.5 12.5
t-12.5 29.5v78q60 -35 128.5 -35t127.5 35v-78v0zM512 87q-88 0 -150.5 62.5t-62.5 150.5t62.5 150.5t150.5 62.5t150.5 -62.5t62.5 -150.5t-62.5 -150.5t-150.5 -62.5z" />
    <glyph glyph-name="ipad" unicode="&#xe656;" 
d="M830 -209h-635q-27 0 -45.5 19t-18.5 45v889q0 27 18.5 45.5t45.5 18.5h635q26 0 45 -18.5t19 -45.5v-889q0 -26 -19 -45t-45 -19v0zM512 -177q14 0 23 9.5t9 22.5t-9.5 22.5t-22.5 9.5t-22 -9.5t-9 -22.5t9 -22.5t22 -9.5v0zM798 713h-572v-795h572v795v0z" />
    <glyph glyph-name="peijian" unicode="&#xe6a2;" 
d="M675 471h-44v-30h-60v30h-29v-30h-60v30h-29v-30h-60v30h-44v-60h326v60v0zM675 812h-44v-15h-30v15h-252v-104h326v104v0zM513 315q47 0 81.5 -32.5t37.5 -78.5h43v192h-44v-29h-60v29h-29v-29h-60v29h-29v-29h-60v29h-44v-192h46q3 46 37 78.5t81 32.5zM675 545h-44
v-30h-60v30h-29v-30h-60v30h-29v-30h-60v30h-44v-60h326v60v0zM675 619h-44v-30h-60v30h-29v-30h-60v30h-29v-30h-60v30h-44v-59h326v59v0zM513 77q-47 0 -81 32.5t-37 79.5h-46v-401h326v401h-43q-3 -47 -37.5 -79.5t-81.5 -32.5zM675 693h-44v-29h-60v29h-29v-29h-60v29
h-29v-29h-60v29h-44v-59h326v59v0zM513.5 300q38.5 0 67.5 -25l-35 -36q-15 12 -33 12t-32 -12l-36 36q30 25 68.5 25zM553 196q0 -16 -11.5 -27.5t-28 -11.5t-28 11.5t-11.5 27.5t11.5 28t28 12t28 -12t11.5 -28zM409 196.5q0 38.5 26 67.5l35 -35q-11 -15 -11 -33t11 -33
l-35 -35q-26 30 -26 68.5zM513.5 92q-38.5 0 -68.5 26l35 35q15 -11 33 -11t33 11l35 -35q-29 -26 -67.5 -26zM592 128l-36 35q12 15 12 33t-12 33l36 35q25 -29 25 -67.5t-25 -68.5zM513 142q-18 0 -32 11l-36 -35q30 -26 68.5 -26t67.5 26l-35 35q-15 -11 -33 -11z
M556 229q12 -15 12 -33t-12 -33l36 -35q25 30 25 68.5t-25 67.5zM459 196q0 18 11 33l-35 35q-26 -29 -26 -67.5t26 -68.5l35 35q-11 15 -11 33zM513 251q18 0 33 -12l35 36q-29 25 -67.5 25t-68.5 -25l36 -36q14 12 32 12zM513.5 236q-16.5 0 -28 -12t-11.5 -28t11.5 -27.5
t28 -11.5t28 11.5t11.5 27.5t-11.5 28t-28 12z" />
    <glyph glyph-name="watch2" unicode="&#xe653;" 
d="M522 493l-1 -179l92 -94l-23 -21l-97 96l2 198h27zM494 760h170q4 -6 6 -13t8 -50t15 -131q-1 0 -6 -4q-151 88 -294 37q0 -1 5 -9t11.5 -16t8.5 -7q49 19 105 16q96 -13 161 -62.5t88 -133.5q9 -32 10 -74q0 -1 10 -1.5t19.5 0.5t9.5 2v20q14 -5 18 -10t5 -22
q-2 -14 -6 -20.5t-15 -10.5h-2v43q0 1 -4 1.5t-9.5 0.5t-11.5 -0.5t-10 -1t-4 -1.5q0 -75 -35 -143t-97.5 -110t-135.5 -39q-1 -2 -0.5 -9.5t2.5 -17t3 -9.5q118 -2 164 58h8q-3 -30 -10 -94.5t-11 -97.5q-4 -3 -6 -4h-307l-6 2q-19 139 -25 187l5 2.5t5 1.5
q31 -23 80.5 -39t103.5 -16q1 1 0.5 9t-3 17.5t-3.5 9.5q-21 1 -33 3q-53 10 -101.5 38t-83 70.5t-53 92.5t-12 109t41.5 114q22 36 62 68.5t83 50.5q2 1 -4 9t-13 15.5t-8 7.5q-9 -6 -30 -17.5t-31 -17.5h-2q-6 15 5 97t20 99h69h70q1 0 1.5 8t0 15.5t-1.5 7.5h-176
q-1 -11 -2.5 -25t-3 -29.5t-9 -70t-20.5 -143.5q-9 -12 -27.5 -38.5t-27.5 -38.5q-30 -56 -34 -128.5t22 -132.5q7 -16 35.5 -54.5t31.5 -49.5q24 -204 27.5 -230t10.5 -41q369 -1 379 6q6 44 18 132.5t18 132.5q11 15 24 31q38 55 49 108q4 2 22 10.5t26.5 15t14.5 17.5
q13 21 15 45q-2 21 -14 37.5t-29 25.5q-19 7 -33 12q-4 10 -13.5 35.5t-14.5 39.5q-5 6 -20 25.5t-23 29.5q-34 258 -37 277q-5 2 -209 2q-1 0 -1.5 -8t-0.5 -16t2 -8z" />
    <glyph glyph-name="ipad1" unicode="&#xf0022;" 
d="M800 -180h-576q-40 0 -68 28t-28 68v768q0 40 28 68t68 28h576q40 0 68 -28t28 -68v-768q0 -40 -28 -68t-68 -28zM224 716q-13 0 -22.5 -9.5t-9.5 -22.5v-768q0 -13 9.5 -22.5t22.5 -9.5h576q13 0 22.5 9.5t9.5 22.5v768q0 13 -9.5 22.5t-22.5 9.5h-576zM640 44h-384
q-13 0 -22.5 9.5t-9.5 22.5v480q0 13 9.5 22.5t22.5 9.5t22.5 -9.5t9.5 -22.5v-448h352q13 0 22.5 -9.5t9.5 -22.5t-9.5 -22.5t-22.5 -9.5zM768 44q-13 0 -22.5 9.5t-9.5 22.5v448h-352q-13 0 -22.5 9.5t-9.5 22.5t9.5 22.5t22.5 9.5h384q13 0 22.5 -9.5t9.5 -22.5v-480
q0 -13 -9.5 -22.5t-22.5 -9.5zM512 -36zM464 -36q0 20 14 34t34 14t34 -14t14 -34t-14 -34t-34 -14t-34 14t-14 34zM576 620h-128q-13 0 -22.5 9.5t-9.5 22.5t9.5 22.5t22.5 9.5h128q13 0 22.5 -9.5t9.5 -22.5t-9.5 -22.5t-22.5 -9.5z" />
    <glyph glyph-name="laptopmac" unicode="&#xe788;" 
d="M853 128q36 0 60.5 25t24.5 60l1 470q0 35 -25 60t-61 25h-682q-36 0 -61 -25t-25 -60v-470q0 -35 25 -60t61 -25h-171q0 -35 25 -60t60 -25h854q35 0 60 25t25 60h-171zM171 683h682v-470h-682v470zM512 85q-18 0 -30.5 12.5t-12.5 30.5t12.5 30.5t30.5 12.5t30.5 -12.5
t12.5 -30.5t-12.5 -30.5t-30.5 -12.5z" />
    <glyph glyph-name="watch3" unicode="&#xe916;" 
d="M853 384q0 80 -34.5 150t-95.5 118l-40 244h-342l-40 -244q-61 -48 -95.5 -118t-34.5 -150t34.5 -150t95.5 -118l40 -244h342l40 244q61 48 95.5 118t34.5 150zM256 384q0 106 75 181t181 75t181 -75t75 -181t-75 -181t-181 -75t-181 75t-75 181z" />
    <glyph glyph-name="siglyphwatch" unicode="&#xe648;" horiz-adv-x="1088" 
d="M574 428h-61v-188h5v-3h122v61h-66v130zM828 299q-10 93 -73 161q-20 23 -51 44v244h-320v-244q-32 -22 -55 -49q-71 -81 -71 -186q0 -89 51 -163q30 -43 75 -74v-241h320v241q40 27 69 66q46 61 55 138h66v63h-66v0zM768 259q-3 -69 -44 -125q-32 -41 -79 -65.5
t-101 -24.5q-56 0 -104.5 26t-79.5 71q-40 57 -40 127q0 82 56 146q68 78 168 78q98 0 166 -74q55 -61 58 -143v-16v0z" />
    <glyph glyph-name="iphone" unicode="&#xe601;" 
d="M836 -133h-202q-20 0 -34 14.5t-14 35.5v488q0 21 14 35t34 14h202q20 0 34 -14t14 -35v-488q0 -21 -14 -35.5t-34 -14.5zM738.5 -113q11.5 0 20 9t8.5 21t-8.5 20.5t-20 8.5t-20 -8.5t-8.5 -21t8.5 -21t20 -8.5zM767 416h-57q-10 0 -10 -9.5t10 -9.5h57q9 0 9 9.5
t-9 9.5zM861 360h-252v-388h252v388zM685 635h-467v-667h364v-56q0 -20 14.5 -35.5t34.5 -15.5h-439q-22 0 -37 16t-15 38v746q0 22 15 38t37 16h519q21 0 36.5 -16t15.5 -38v-201h-78v175zM451.5 -112q10.5 0 18 8t7.5 19t-7.5 18.5t-18 7.5t-18.5 -7.5t-8 -18.5t8 -19
t18.5 -8z" />
    <glyph glyph-name="version" unicode="&#xe60b;" 
d="M512 -212q-104 0 -199 40.5t-163.5 109t-109 163.5t-40.5 199t40.5 199t109 163.5t163.5 109t199 40.5t199 -40.5t163.5 -109t109 -163.5t40.5 -199t-40.5 -199t-109 -163.5t-163.5 -109t-199 -40.5zM512 710q-111 0 -205.5 -55t-149.5 -149.5t-55 -205.5t55 -205.5
t149.5 -149.5t205.5 -55t205.5 55t149.5 149.5t55 205.5t-55 205.5t-149.5 149.5t-205.5 55zM741 373q0 25 -18.5 41.5t-51.5 16.5q-29 0 -46 -13.5t-17 -34.5q0 -20 19.5 -33t47 -21.5t55 -18.5t47 -31.5t19.5 -52.5q0 -47 -32 -77t-89 -30q-59 0 -93.5 28t-34.5 72v19h56
v-8q0 -31 21 -46.5t55 -15.5q29 0 44.5 14.5t15.5 37.5q0 20 -19.5 33.5t-47 22t-55 19t-46.5 31.5t-19 52q0 43 32.5 72.5t87.5 29.5q56 0 90.5 -29t34.5 -71v-15h-56v8zM375 119q-57 0 -91 34t-34 85v123q0 51 34 85t91.5 34t91 -34t33.5 -85v-123q0 -51 -34 -85t-91 -34z
M446 363q0 29 -18.5 49t-52 20t-52 -20t-18.5 -49v-127q0 -29 18.5 -48.5t52 -19.5t52 19.5t18.5 48.5v127z" />
    <glyph glyph-name="youjiantou" unicode="&#xe67e;" 
d="M266 699l46 45l446 -445l-446 -446l-46 46l401 400z" />
    <glyph glyph-name="ipad2" unicode="&#xe800;" 
d="M224 666v-732q0 -8 5 -13t13 -5h540q8 0 13 5t5 13v732q0 8 -5 13t-13 5h-540q-8 0 -13 -5t-5 -13zM512 -63q-11 0 -19 8t-8 19t8 19t19 8t19 -8t8 -19t-8 -19t-19 -8zM288 575q0 5 3.5 9t8.5 4h422q6 0 10 -4t4 -9v-551q0 -5 -4 -8.5t-10 -3.5h-422q-5 0 -8.5 3.5
t-3.5 8.5v551z" />
    <glyph glyph-name="ipad3" unicode="&#xe81b;" 
d="M224 666v-732q0 -8 5 -13t13 -5h540q8 0 13 5t5 13v732q0 8 -5 13t-13 5h-540q-8 0 -13 -5t-5 -13zM512 -63q-11 0 -19 8t-8 19t8 19t19 8t19 -8t8 -19t-8 -19t-19 -8zM288 575q0 5 3.5 9t8.5 4h422q6 0 10 -4t4 -9v-551q0 -5 -4 -8.5t-10 -3.5h-422q-5 0 -8.5 3.5
t-3.5 8.5v551z" />
    <glyph glyph-name="imac" unicode="&#xe626;" horiz-adv-x="1118" 
d="M1003 67h-398v-186h233v0h1q38 0 65 -27t27 -65v-1h-745v1q0 38 27 65t65 27h234v186h-398q-47 0 -80.5 33.5t-33.5 80.5v517q0 47 33.5 80.5t80.5 33.5h889q47 0 80.5 -33.5t33.5 -80.5v-517q0 -47 -33.5 -80.5t-80.5 -33.5zM1024 719h-931v-559h931v559z" />
    <glyph glyph-name="watch4" unicode="&#xe62e;" 
d="M320 -212h384q13 0 22.5 9.5t9.5 22.5v209q60 49 94 120t34 151t-34 151t-94 120v209q0 13 -9.5 22.5t-22.5 9.5h-384q-13 0 -22.5 -9.5t-9.5 -22.5v-209q-60 -49 -94 -120t-34 -151t34 -151t94 -120v-209q0 -13 9.5 -22.5t22.5 -9.5zM672 -148h-320v135q75 -39 160 -39
t160 39v-135zM352 748h320v-135q-75 39 -160 39t-160 -39v135zM224 300q0 119 84.5 203.5t203.5 84.5t203.5 -84.5t84.5 -203.5t-84.5 -203.5t-203.5 -84.5t-203.5 84.5t-84.5 203.5zM498 271l128 -64q6 -3 14 -3q20 0 29 18q6 12 1.5 24.5t-16.5 18.5l-110 55v172
q0 13 -9.5 22.5t-22.5 9.5t-22.5 -9.5t-9.5 -22.5v-192q0 -20 18 -29z" />
    <glyph glyph-name="iphone1" unicode="&#xe60d;" 
d="M758 240q36 -51 82 -67q-20 -62 -64 -131q-67 -102 -132 -102q-25 0 -73 17q-44 16 -77.5 16t-73.5 -17q-42 -17 -69 -17q-79 0 -155 135q-76 134 -76 263q0 120 58 196q59 76 147 76q19 0 42.5 -5t48.5 -18q27 -15 44.5 -21t27.5 -6q12 0 35 6q24 5 47 19
q25 14 43.5 21.5t37.5 7.5q62 0 111 -34q26 -18 53 -52q-40 -36 -59 -62q-34 -50 -34 -108q0 -65 36 -117v0v0zM582 653q-30 -29 -55 -38q-9 -2 -23 -5q-13 -2 -31 -4q1 78 40.5 135t129.5 78q2 -9 2 -12v-10q0 -32 -15 -72q-15 -39 -48 -72v0v0zM582 653z" />
    <glyph glyph-name="ipad4" unicode="&#xe617;" 
d="M418 602h-239q-28 0 -48.5 -20.5t-20.5 -49.5v-509q0 -29 20.5 -49.5t48.5 -20.5h239q29 0 49.5 20.5t20.5 49.5v509q0 29 -20.5 49.5t-49.5 20.5zM298.5 -33q-13.5 0 -23 9.5t-9.5 23t9.5 23t23 9.5t23 -9.5t9.5 -23t-9.5 -23t-23 -9.5zM450 66q0 -7 -5 -12.5t-12 -5.5
h-268q-8 0 -13 5.5t-5 12.5v423q0 7 5 12.5t13 5.5h268q7 0 12 -5.5t5 -12.5v-423zM914 746q0 28 -20 48.5t-49 20.5h-472q-29 0 -49.5 -20.5t-20.5 -48.5v-107h45v60q0 9 6.5 16t15.5 7h478q9 0 15.5 -7t6.5 -16v-616q0 -9 -6.5 -15.5t-15.5 -6.5h-323v-35q0 -43 -30 -73
h350q29 0 49 20.5t20 48.5v724v0zM609 -22q-13 0 -22.5 9t-9.5 22t9.5 22t22.5 9t22 -9t9 -22t-9 -22t-22 -9z" />
    <glyph glyph-name="peijian2" unicode="&#xe6a3;" 
d="M491 896h-351v-200h351v200zM261 768h-77v45h77v-45zM444 768h-73v45h73v-45zM530 667h-428q-10 0 -18 -41.5t-8 -62.5v-577q0 -22 8 -66t18 -44h428q10 0 18 44t8 66v577q0 21 -8 62.5t-18 41.5zM491 -32h-340q-10 0 -17 7t-7 16q0 5 3 10v363q0 11 7 19t17 8t17 -8
t7 -19v-351h313q10 0 17 -6.5t7 -15.5t-7 -16t-17 -7zM922 494h-31v110q0 11 -7.5 18.5t-18.5 7.5h-188q-11 0 -18.5 -7.5t-7.5 -18.5v-110h-27q-11 0 -18.5 -8t-7.5 -18v-275q0 -10 7.5 -18t18.5 -8h125v-295h63v295h110q11 0 18.5 8t7.5 18v275q0 10 -7.5 18t-18.5 8z
M698 559q0 25 16 25h120q16 0 16 -25v-65h-44v58h-63v-58h-45v65z" />
    <glyph glyph-name="ipad5" unicode="&#xe607;" 
d="M763 833h-505q-35 0 -59.5 -25t-24.5 -60v-729q0 -34 24.5 -59t59.5 -25h505q35 0 59.5 25t24.5 59v729q0 35 -24.5 60t-59.5 25zM496 776h28q6 0 10.5 -4t4.5 -9.5t-4.5 -10t-10.5 -4.5h-28q-5 0 -9.5 4.5t-4.5 10t4.5 9.5t9.5 4zM510.5 -37q-11.5 0 -20 8.5t-8.5 20
t8.5 19.5t20 8t20 -8t8.5 -19.5t-8.5 -20t-20 -8.5zM791 47h-561v673h561v-673zM791 720zM621 374q0 -52 52 -75q-11 -30 -27 -52q-10 -14 -17 -22t-18.5 -15t-23.5 -8q-12 0 -30 7.5t-33 7.5q-16 0 -34 -7.5t-29 -7.5q-17 -1 -31 11.5t-30 34.5q-17 24 -28.5 55.5t-11.5 67
t16 62.5q12 21 33.5 33.5t45.5 12.5q14 0 35.5 -8t28.5 -8q4 0 30 9t43 8q46 -2 70 -37q-41 -26 -41 -69v0zM516 484q-5 30 20 57q24 26 57 27q3 -31 -20 -58q-25 -28 -57 -26v0zM516 484z" />
    <glyph glyph-name="watch5" unicode="&#xe674;" 
d="M512 128q-106 0 -181 75t-75 181t75 181t181 75t181 -75t75 -181t-75 -181t-181 -75v0zM608 -16h-192v129q47 -17 96 -17t96 17v-129zM416 784h192v-129q-47 17 -96 17t-96 -17v129zM640 642v174h-256v-174q-72 -36 -116 -105.5t-44 -152.5t44 -152.5t116 -105.5v-174
h256v174q72 36 116 105.5t44 152.5t-44 152.5t-116 105.5v0zM528 544h-32v-176h176v32h-144v144z" />
    <glyph glyph-name="music-copy" unicode="&#xe602;" 
d="M194 -44h-22q-70 0 -120 56t-50 134.5t50 134t120 55.5h22q8 0 14.5 -6.5t6.5 -16.5v-333q0 -10 -6.5 -17t-14.5 -7zM172 289q-52 0 -89.5 -42t-37.5 -101t37.5 -100.5t89.5 -41.5v285zM193.5 -44q-8.5 0 -15 7t-6.5 17v333q0 10 6.5 16.5t15 6.5t15 -6.5t6.5 -16.5v-333
q0 -10 -6.5 -17t-15 -7zM236 -92q-26 0 -45 21t-19 51q0 10 6.5 17t15 7t15 -7t6.5 -17t6 -17t15 -7t15 7t6 17v333q0 10 -6 16.5t-15 6.5t-15 -6.5t-6 -16.5t-6.5 -17t-15 -7t-15 7t-6.5 17q0 29 19 50t45 21t45 -21t19 -50v-333q0 -30 -19 -51t-45 -21zM852 -44h-22
q-8 0 -14.5 7t-6.5 17v333q0 10 6.5 16.5t14.5 6.5h22q70 0 120 -55.5t50 -134t-50 -134.5t-120 -56zM852 289v-285q52 0 89.5 41.5t37.5 100.5t-37.5 101t-89.5 42zM830.5 -44q-8.5 0 -15 7t-6.5 17v333q0 10 6.5 16.5t15 6.5t15 -6.5t6.5 -16.5v-333q0 -10 -6.5 -17
t-15 -7zM788 -92q-26 0 -45 21t-19 51v333q0 29 19 50t45 21t45 -21t19 -50q0 -10 -6.5 -17t-15 -7t-15 7t-6.5 17t-6 16.5t-15 6.5t-15 -6.5t-6 -16.5v-333q0 -10 6 -17t15 -7t15 7t6 17t6.5 17t15 7t15 -7t6.5 -17q0 -30 -19 -51t-45 -21zM730 669q-7 0 -12 4
q-70 44 -207 44q-65 0 -117 -12t-67 -19.5t-21 -12.5q-15 -10 -27 3l-38 43q-6 7 -6 17t6 17t15 7t15 -7l27 -30q78 42 213 42q134 0 215 -43l27 30q6 7 14.5 7t15 -7t6.5 -17t-6 -17l-39 -42q-6 -7 -14 -7zM916 550q-14 0 -20 15q-18 45 -54 89t-85 79.5t-113.5 57
t-131.5 21.5t-131 -21.5t-113 -57t-85 -79.5t-55 -89q-3 -9 -11.5 -12.5t-16.5 0.5t-11 13t1 18q20 52 60 101t93.5 88t124 63t145 24t144.5 -24t124 -63t93.5 -88t60.5 -101q4 -9 0.5 -18t-11.5 -13q-4 -3 -8 -3zM109 292v0q-9 0 -15 7t-6 16v259q0 10 6 17t15 7v0
q9 0 15 -7t6 -17v-259q0 -9 -6 -16t-15 -7zM915.5 292q-8.5 0 -15 7t-6.5 16v259q0 10 6.5 17t15.5 7t15 -7t6 -17v-259q0 -9 -6.5 -16t-15 -7z" />
    <glyph glyph-name="macbook" unicode="&#xe672;" 
d="M945 103h-45h-781h-45q-19 0 -32.5 13t-13.5 32v75h91v436q0 18 13 31.5t32 13.5h691q18 0 31.5 -13.5t13.5 -31.5v-436h90v-75q0 -19 -13 -32t-32 -13zM404 148h210v30h-210v-30zM840 644h-661v-391h661v391z" />
    <glyph glyph-name="downloadipad" unicode="&#xe633;" 
d="M990 581h-824q-13 0 -22.5 -9.5t-9.5 -22.5v-645q0 -13 9.5 -22.5t22.5 -9.5h824q13 0 22.5 9.5t9.5 22.5v645q0 13 -9.5 22.5t-22.5 9.5zM203.5 186q-16.5 0 -28.5 12t-12 28.5t12 28.5t28.5 12t28.5 -12t12 -28.5t-12 -28.5t-28.5 -12zM939 -33h-682v519h682v-519z
M679 896h-645q-13 0 -22.5 -9.5t-9.5 -22.5v-824q0 -13 9.5 -22.5t22.5 -9.5h63v123v0v683h519v-203h95v253q0 13 -9.5 22.5t-22.5 9.5z" />
    <glyph glyph-name="macbook1" unicode="&#xe660;" 
d="M964 88h-907v119h907v-119zM98 129h825v37h-825v-37zM916 166h-811v514h811v-514zM146 207h729v432h-729v-432zM512 589zM484 588.5q0 11.5 8.5 19.5t19.5 8t19.5 -8t8.5 -19.5t-8.5 -19.5t-19.5 -8t-19.5 8t-8.5 19.5z" />
    <glyph glyph-name="mooncomputer" unicode="&#xe608;" horiz-adv-x="1025" 
d="M228 -70v57h569v-57h-569zM968 840h-910q-24 0 -40.5 -16.5t-16.5 -40.5v-626q0 -23 16.5 -40t40.5 -17h910q23 0 40 17t17 40v626q0 24 -17 40.5t-40 16.5zM968 214q0 -23 -17 -40t-40 -17h-797q-23 0 -39.5 17t-16.5 40v512q0 24 16.5 40.5t39.5 16.5h797
q23 0 40 -16.5t17 -40.5v-512zM399 -70h-57v171h57v-171zM683 -70h-57v171h57v-171zM58 214v57h910v-57h-910z" />
    <glyph glyph-name="unif047" unicode="&#xe63d;" 
d="M267 128v584h474v-584h-474zM465 16q0 38 40 38q38 0 38 -38q0 -40 -38 -40q-40 0 -40 40v0zM267 870q-78 0 -78 -78v-818q0 -78 78 -78h474q78 0 78 78v818q0 78 -78 78h-474z" />
    <glyph glyph-name="gouwudai" unicode="&#xe60e;" 
d="M673 604h-323h-115v-552q1 -5 3.5 -12t17 -22.5t36.5 -23.5h446q3 0 7.5 1t16 4.5t20 9t15.5 17t7 26.5v552h-131zM398 465q-16 0 -27.5 11.5t-11.5 27.5t11.5 27.5t27.5 11.5t27.5 -11.5t11.5 -27.5t-11.5 -27.5t-27.5 -11.5zM609.5 465q-16.5 0 -27.5 11.5t-11 27.5
t11 27.5t27.5 11.5t27.5 -11.5t11 -27.5t-11 -27.5t-27.5 -11.5zM514 815q-64 0 -109.5 -45.5t-45.5 -109.5t45.5 -109.5t109.5 -45.5t109.5 45.5t45.5 109.5t-45.5 109.5t-109.5 45.5zM511 556q-39 0 -66 27.5t-27 66t27 66t66 27.5t66 -27.5t27 -66t-27 -66t-66 -27.5z
" />
    <glyph glyph-name="macminimize" unicode="&#xe66d;" 
d="M65 488h894v-210h-894v210z" />
    <glyph glyph-name="iphone-copy" unicode="&#xe603;" 
d="M332 896q-36 0 -62.5 -26t-26.5 -63v-846q0 -37 26.5 -63t62.5 -26h381q37 0 63 26t26 63v846q0 37 -26 63t-63 26h-381zM748 51h-451v666h451v-666zM477 -35q0 19 13.5 32.5t32.5 13.5t32.5 -13.5t13.5 -32.5t-13.5 -32.5t-32.5 -13.5t-32.5 13.5t-13.5 32.5zM567 806
q4 0 7 -3t3 -7.5t-3 -7.5t-7 -3h-88q-5 0 -8 3t-3 7.5t3 7.5t8 3h88z" />
    <glyph glyph-name="icon" unicode="&#xe609;" 
d="M841 384v73q0 89 -44 165t-120 120t-165 44t-165 -44t-120 -120t-44 -165v-73q-30 0 -51.5 -21.5t-21.5 -51.5v-256q0 -30 21.5 -51.5t51.5 -21.5h110q30 0 51.5 21.5t21.5 51.5v256q0 30 -21.5 51.5t-51.5 21.5h-37v73q0 106 75 181t181 75t181 -75t75 -181v-73h-37
q-30 0 -51.5 -21.5t-21.5 -51.5v-256q0 -30 21.5 -51.5t51.5 -21.5h110q30 0 51.5 21.5t21.5 51.5v256q0 30 -21.5 51.5t-51.5 21.5zM293 311v-256h-110v256h110zM841 55h-110v256h110v-256z" />
    <glyph glyph-name="Watch" unicode="&#xe614;" 
d="M699 217l-36 -307q-2 -13 -12.5 -22.5t-24.5 -9.5h-262q-13 0 -24 9.5t-12 22.5l-37 307h408zM661 876q-1 8 -11 14t-23 6h-264q-13 0 -23 -6t-11 -14l-38 -319h408zM727 439h103v-83h-103v83zM274 647h443v-531h-443v531zM191 387q0 -125 87.5 -213.5t211.5 -88.5
t211.5 88.5t87.5 213.5t-87.5 213.5t-211.5 88.5t-211.5 -88.5t-87.5 -213.5zM495 564q5 0 5 -5v-167q0 -5 -5 -5t-5 5v167q0 5 5 5zM605 497l4 -4l-139 -140l-4 4zM577 301l-8 -7l-82 88l8 7zM480 381.5q0 -6.5 4.5 -11t11 -4.5t11 4.5t4.5 11t-4.5 11t-11 4.5t-11 -4.5
t-4.5 -11z" />
    <glyph glyph-name="sousuo" unicode="&#xe70b;" 
d="M1024 -32l-307 288q77 110 77 224q0 97 -49.5 181.5t-134 134t-182 49.5t-181.5 -49.5t-133.5 -134t-49.5 -181.5t49.5 -181.5t133.5 -134t182 -49.5q133 0 237 83l300 -275zM102 480q0 88 44 163.5t119.5 119t163.5 43.5t163 -43.5t119 -119t44 -163.5t-44 -163.5
t-119 -119t-163 -43.5t-163.5 43.5t-119.5 119t-44 163.5z" />
    <glyph glyph-name="hk9acbkluq" unicode="&#xe613;" 
d="M294 847q-23 -4 -39 -20q-14 -14 -19 -30q0 -2 -2 -7q-1 -3 -1 -407t1 -408q6 -23 20 -36.5t20 -13.5q1 0 2 -1t6 -3q6 -2 7 -2q1 -1 222 -1t225 2q20 5 34 19q12 14 17 29q0 2 2 7q1 3 1 407.5t-1 408.5q0 1 -1 4t-2 4q-7 23 -31 38q-11 7 -27 10q-8 1 -217.5 1
t-216.5 -1zM725 700q1 -1 1 -317t-0.5 -317t-214.5 -1h-214v317q0 318 1 318.5t213.5 0.5t213.5 -1zM520 26q10 -3 16.5 -12t5.5 -19q-1 -9 -5 -16q-3 -5 -8.5 -8t-7 -3t-3.5 -1q-6 -3 -13 0q-3 1 -4 1q-5 0 -12 7q-6 7 -6 11q0 1 -1 3.5t-1 7t1 7t1 3.5t3 6q7 11 21 14
q5 1 13 -1zM552 505q-25 -6 -37 -30q-4 -7 -5 -15.5t1 -10.5q2 -1 9 1q23 6 33 29q6 11 5 20q0 5 -0.5 6t-5.5 0zM544 446q-7 -2 -19 -7q-13 -5 -25 -1q-1 1 -3 1.5t-3 1.5q-4 1 -6 2q-11 4 -22 2q-19 -2 -33 -15q-17 -16 -20 -42q-6 -35 12 -73q5 -11 6 -13q13 -21 23 -30
q16 -15 35 -7q13 5 20 6q12 2 31 -6q6 -2 12 -2q12 -1 23 8q13 10 26 37q6 13 7 16v3l-5 3q-4 2 -11 9q-7 6 -10 12q-5 12 -5 25t5 23q6 12 16 20q3 3 3 4q0 4 -11 12q-21 17 -46 11z" />
    <glyph glyph-name="music" unicode="&#xe618;" 
d="M292 137q-30 0 -51.5 -21.5t-21.5 -51.5q0 -6 4 -10.5t10 -4.5t10.5 4.5t4.5 10.5q0 18 13 31t31 13q6 0 10.5 4.5t4.5 10.5t-4.5 10t-10.5 4zM731 269q-30 0 -51.5 -21.5t-21.5 -51.5q0 -6 4 -10.5t10 -4.5t10.5 4.5t4.5 10.5q0 18 13 31t31 13q6 0 10.5 4t4.5 10.5
t-4.5 10.5t-10.5 4zM872 815q0 17 -9 24q-12 8 -25 4l-441 -147q-10 -3 -16.5 -10.5t-6.5 -16.5v-488q-10 13 -34.5 21t-50.5 8q-60 0 -102 -42.5t-42 -103.5t43 -103.5t104 -42.5q58 0 97.5 40t42.5 99q1 2 1 5v455l380 126v-331q-11 14 -35 22t-50 8q-60 0 -102.5 -43
t-42.5 -103q0 -61 43.5 -104t103.5 -43q59 0 99 39.5t43 98.5v3.5v3.5v621v0zM292.5 -24q-36.5 0 -62 26t-25.5 62t25.5 62t62 26t62 -26t25.5 -62t-25.5 -62t-62 -26zM433 548v99l380 127v-100zM731.5 108q-36.5 0 -62.5 25.5t-26 62t26 62t62.5 25.5t62 -25.5t25.5 -62
t-25.5 -62t-62 -25.5z" />
    <glyph glyph-name="zuojiantou" unicode="&#xe604;" 
d="M762 857q11 -12 11 -28.5t-12 -28.5l-415 -412l414 -418q11 -12 11 -28.5t-11.5 -28.5t-28.5 -12t-28 12l-440 444q-1 1 -1 1.5t-1 1.5v0v0q-12 12 -12 28q0 17 12 29l444 440q12 12 28.5 12t28.5 -12v0v0v0z" />
    <glyph glyph-name="music1" unicode="&#xe620;" 
d="M1018 691q0 77 -54.5 131.5t-131.5 54.5l-371 -64q-76 0 -127.5 -54t-51.5 -132v-473q-54 32 -109 32q-71 4 -122 -36t-51 -99q0 -58 50.5 -99.5t122 -41.5t122.5 41.5t51 99.5v493l608 109v-371q-54 32 -109 32q-72 0 -122.5 -41.5t-50.5 -99.5t50.5 -99.5t122 -41.5
t122.5 41.5t51 99.5v518zM173 -26q-44 0 -76.5 22t-32.5 55t32.5 55t76.5 22t76.5 -22t32.5 -55t-32.5 -55t-76.5 -22zM346 608v26q0 49 34.5 85t86.5 36l371 58q42 0 74 -28t42 -68zM845 96q-44 0 -76.5 22t-32.5 55t32.5 55t76.5 22t76.5 -22t32.5 -55t-32.5 -55
t-76.5 -22z" />
    <glyph glyph-name="watch6" unicode="&#xe647;" 
d="M512 384h128v-64h-192v256h64v-192zM896 384q0 -105 -52 -193.5t-140 -138.5v-116q0 -26 -19 -45t-45 -19h-256q-26 0 -45 19t-19 45v116q-88 50 -140 138.5t-52 193.5t52 193.5t140 138.5v116q0 26 19 45t45 19h256q26 0 45 -19t19 -45v-116q88 -50 140 -138.5
t52 -193.5zM832 384q0 133 -93.5 226.5t-226.5 93.5t-226.5 -93.5t-93.5 -226.5t93.5 -226.5t226.5 -93.5t226.5 93.5t93.5 226.5z" />
    <glyph glyph-name="macbook2" unicode="&#xe66b;" 
d="M928 192v464q0 20 -14 34t-34 14h-736q-20 0 -34 -14t-14 -34v-464h-96v-80q0 -20 14 -34t34 -14h928q20 0 34 14t14 34v80h-96zM624 112h-224v32h224v-32zM864 224h-704v416h704v-416z" />
    <glyph glyph-name="ios" unicode="&#xe66c;" 
d="M981 -73q0 -22 -17 -38.5t-42 -16.5h-820q-25 0 -42 16.5t-17 38.5v914q0 22 17 38.5t42 16.5h666v-102l94 -111h119v-756zM256 0h512v512h-512v-512zM768 896v-90q0 -11 13 -64.5t21 -58.5l179 -128v128zM768 896v-171q0 -18 13 -30t30 -12h170zM593 247q0 18 8.5 32.5
t17.5 21.5l8 6q-11 17 -27.5 23.5t-27.5 6.5q-15 3 -36 -5t-24 -8q-5 0 -22 6.5t-29 6.5q-19 0 -36.5 -11t-27.5 -27q-18 -38 -10.5 -82.5t31.5 -75.5q1 -1 3 -4q9 -12 14 -18t15 -12t19 -5q10 0 24 6.5t27.5 6.5t27.5 -6.5t24 -6.5q4 0 8 1.5t8 4t7 4.5t7 6.5t5.5 7t5.5 8
t6 7.5q7 9 12.5 20t6.5 17l2 5q-4 0 -14 6t-21.5 21.5t-11.5 36.5zM555 363q17 17 17 51q-28 0 -47 -26q-10 -6 -15 -20t-2 -27q25 0 47 22z" />
  </font>
</defs>
</svg>
